<?xml version="1.0" encoding="iso-8859-1"?>
<!-- Generator: Adobe Illustrator 16.0.0, SVG Export Plug-In . SVG Version: 6.00 Build 0)  -->
<!DOCTYPE svg PUBLIC "-//W3C//DTD SVG 1.1//EN" "http://www.w3.org/Graphics/SVG/1.1/DTD/svg11.dtd">
<svg version="1.1" id="Capa_1" xmlns="http://www.w3.org/2000/svg" xmlns:xlink="http://www.w3.org/1999/xlink" x="0px" y="0px"
	 width="40" height="40" fill="white" viewBox="0 0 530.031 530.031" style="enable-background:new 0 0 530.031 530.031;"
	 xml:space="preserve">
<g>
	<g>
		<path d="M369.847,203.294c16.258,10.597,35.661,16.778,56.516,16.778c57.255,0,103.669-46.414,103.669-103.67
			c0-57.255-46.414-103.669-103.669-103.669c-52.058,0-95.139,38.372-102.538,88.37h102.538h33.987l-22.534,25.444L369.847,203.294z
			"/>
		<path d="M190.231,331.207v11.541v11.539v128.504c-28.614,4.439-49.477,18.203-49.477,34.508h138.734
			c0-15.113-17.938-28.049-43.357-33.391V354.289V342.75v-11.539L357.644,194l68.715-77.595H322.689H0L190.231,331.207z"/>
	</g>
</g>
<g>
</g>
<g>
</g>
<g>
</g>
<g>
</g>
<g>
</g>
<g>
</g>
<g>
</g>
<g>
</g>
<g>
</g>
<g>
</g>
<g>
</g>
<g>
</g>
<g>
</g>
<g>
</g>
<g>
</g>
</svg>
